<svg width="30" height="30" xmlns="http://www.w3.org/2000/svg"><path d="M17.792 14.933a2.858 2.858 0 11-5.717 0 2.858 2.858 0 015.717 0z"/><path d="M21.618 9.876a2.657 2.657 0 00-.641-.986 2.655 2.655 0 00-.986-.641c-.303-.118-.756-.257-1.593-.295-.904-.042-1.175-.05-3.465-.05s-2.56.008-3.465.05c-.836.038-1.29.177-1.592.295-.372.137-.71.356-.986.641a2.658 2.658 0 00-.642.986c-.117.302-.257.756-.295 1.592-.04.905-.05 1.176-.05 3.466s.01 2.56.05 3.465c.038.836.178 1.29.295 1.592.138.372.357.71.642.986.277.285.613.504.986.641.302.118.756.257 1.592.296.904.04 1.175.05 3.465.05s2.561-.01 3.465-.05c.836-.039 1.29-.178 1.593-.296a2.84 2.84 0 001.627-1.627c.117-.302.257-.756.295-1.592.042-.905.05-1.176.05-3.465 0-2.29-.008-2.561-.05-3.466-.038-.836-.177-1.29-.295-1.592zm-6.685 9.46a4.403 4.403 0 110-8.806 4.403 4.403 0 010 8.807zm4.578-7.951a1.03 1.03 0 110-2.058 1.03 1.03 0 010 2.058z"/><path d="M14.933 0C6.687 0 0 6.687 0 14.933c0 8.247 6.687 14.934 14.933 14.934 8.247 0 14.934-6.687 14.934-14.934C29.867 6.687 23.18 0 14.933 0zm8.524 18.469c-.042.912-.187 1.536-.399 2.081a4.385 4.385 0 01-2.508 2.508c-.545.212-1.169.357-2.081.399-.915.041-1.207.051-3.535.051-2.33 0-2.621-.01-3.536-.051-.913-.042-1.536-.187-2.081-.399a4.201 4.201 0 01-1.52-.99 4.203 4.203 0 01-.988-1.518c-.212-.545-.357-1.169-.399-2.081-.042-.915-.052-1.207-.052-3.536 0-2.328.01-2.62.052-3.535.042-.913.186-1.536.398-2.082a4.2 4.2 0 01.99-1.518 4.2 4.2 0 011.518-.99c.546-.211 1.17-.356 2.082-.398.914-.042 1.207-.052 3.535-.052 2.33 0 2.621.01 3.536.052.912.042 1.536.187 2.081.398.572.216 1.09.553 1.52.99.435.428.773.946.988 1.518.212.546.357 1.17.399 2.082.042.914.051 1.207.051 3.535 0 2.33-.01 2.621-.051 3.536z"/></svg>